<?xml version="1.0" encoding="utf-8"?>
<!-- Generator: Adobe Illustrator 19.1.0, SVG Export Plug-In . SVG Version: 6.00 Build 0)  -->
<svg version="1.1" id="Layer_1" xmlns="http://www.w3.org/2000/svg" xmlns:xlink="http://www.w3.org/1999/xlink" x="0px" y="0px"
	 width="1000px" height="1000px" viewBox="0 0 1000 1000" style="enable-background:new 0 0 1000 1000;" xml:space="preserve">
<style type="text/css">
	.st0{fill:#FFFFFF;}
</style>
<g>
	<polygon points="878.9,388 770.5,214.6 608.9,315.6 608.9,125 404.4,125 404.4,315.6 242.7,214.6 134.4,388 313.7,500 134.4,612 
		242.7,785.4 404.4,684.4 404.4,875 608.9,875 608.9,684.4 770.5,785.4 878.9,612 699.5,500 	"/>
	<path class="st0" d="M586.3,323.3c-15.5-10-42.2-10-64.7-7.7c-0.1,9.1-0.1,19-0.2,29.3c8.8-1,17.9-1.4,26.8-1
		c0,15.6,20.4,19.7,37.9,18.8C610.8,361.7,611.9,339.7,586.3,323.3z M493.6,587.4c-31.8-20.5-34.6-37.8-24.5-49.7
		c5-5.8,13.2-10.6,23-15c-0.1-7.9-0.1-15.9-0.2-23.8c-15.2,6.3-29.3,13.1-36.9,19.9c-31.8,28.5-5.7,62.6,21.1,80
		c46.8,30.4,57.3,48,42.1,62.3c-0.1,6.8-0.2,13.5-0.3,20.1c0.2-0.1,0.3-0.2,0.5-0.3C540.1,667.7,572.1,638.1,493.6,587.4z
		 M482.7,725.5c0.9-12.5,5.6-21.1,11.8-27.6c-0.1-6.1-0.2-12.4-0.3-18.8c-12.7,10.8-22.7,23.7-23.5,38.6
		c-2.1,38.2,29.9,59.1,54.6,66.7C494.6,767.5,481,748.1,482.7,725.5z M535.8,395.8c-36.7-7-58.6-8.4-72.3-14.3
		c-19.4-8.4-2.1-22.3,27.2-30.6c0-10.6-0.1-20.7-0.2-30.2c-41.3,10.3-108.5,50.6-47.9,80.9c11.9,5.9,32.5,11.6,70.2,15.3
		c45.6,4.5,67.7,31.8,38.3,56.1c-5,4.1-16.9,9.1-30.8,14.6c-0.1,8.1-0.2,16.2-0.2,24.3c16.8-6.1,34.2-12.6,47.2-21.6
		C608,462.1,599,407.8,535.8,395.8z M499.9,624.2c0.6,51.4,1.4,98.8,2.4,135.1c2.2,2.3,4.6,4.6,7.3,6.8c0.9-34.4,1.7-80.1,2.4-130.2
		C509.1,632.4,505,628.4,499.9,624.2z M506,829.8c1.1,0,2.1-16.8,3-44.7c-2.1-1-4.2-2.1-6.1-3.2C503.8,811.8,504.9,829.8,506,829.8z
		 M506,221c-11.4,0-20.6,9.2-20.6,20.6c0,8,4.6,15,11.3,18.4c0.2,24,0.4,68.6,0.8,122.6c1.8,0.3,3.6,0.6,5.5,0.9
		c3.6,0.6,7.4,1.2,11.5,1.8c0.4-55.3,0.6-100.9,0.8-125.3c6.7-3.4,11.3-10.4,11.3-18.4C526.7,230.3,517.4,221,506,221z M497.8,421.8
		c0.4,51,0.9,107.4,1.6,161.5c4.7,3.1,9.1,6.2,13.2,9.3c0.7-56.3,1.2-115.5,1.7-168.9c-0.7-0.1-1.4-0.2-2.1-0.2
		C507.2,422.9,502.4,422.4,497.8,421.8z"/>
</g>
</svg>
